HIERARCHY
ROOT Hips
{
	OFFSET 0.000000 0.000000 0.000000
	CHANNELS 6 Xposition Yposition Zposition Zrotation Yrotation Xrotation 
	JOINT LHipJoint
	{
		OFFSET 0.000000 0.000000 0.000000
		CHANNELS 3 Zrotation Yrotation Xrotation
		JOINT LeftUpLeg
		{
			OFFSET 1.363060 -1.794630 0.839290
			CHANNELS 3 Zrotation Yrotation Xrotation
			JOINT LeftLeg
			{
				OFFSET 2.448110 -6.726130 0.000000
				CHANNELS 3 Zrotation Yrotation Xrotation
				JOINT LeftFoot
				{
					OFFSET 2.562200 -7.039590 0.000000
					CHANNELS 3 Zrotation Yrotation Xrotation
					JOINT LeftToeBase
					{
						OFFSET 0.157640 -0.433110 2.322550
						CHANNELS 3 Zrotation Yrotation Xrotation
						End Site
						{
							OFFSET 0.000000 0.000000 0.000000
						}
					}
				}
			}
		}
	}
	JOINT RHipJoint
	{
		OFFSET 0.000000 0.000000 0.000000
		CHANNELS 3 Zrotation Yrotation Xrotation
		JOINT RightUpLeg
		{
			OFFSET -1.305520 -1.794630 0.839290
			CHANNELS 3 Zrotation Yrotation Xrotation
			JOINT RightLeg
			{
				OFFSET -2.542530 -6.985550 0.000000
				CHANNELS 3 Zrotation Yrotation Xrotation
				JOINT RightFoot
				{
					OFFSET -2.568260 -7.056230 0.000000
					CHANNELS 3 Zrotation Yrotation Xrotation
					JOINT RightToeBase
					{
						OFFSET -0.164730 -0.452590 2.363150
						CHANNELS 3 Zrotation Yrotation Xrotation
						End Site
						{
							OFFSET 0.000000 0.000000 0.000000
						}
					}
				}
			}
		}
	}
	JOINT LowerBack
	{
		OFFSET 0.000000 0.000000 0.000000
		CHANNELS 3 Zrotation Yrotation Xrotation
		JOINT Spine
		{
			OFFSET 0.028270 2.035590 -0.193380
			CHANNELS 3 Zrotation Yrotation Xrotation
			JOINT Spine1
			{
				OFFSET 0.056720 2.048850 -0.042750
				CHANNELS 3 Zrotation Yrotation Xrotation
				JOINT Neck
				{
					OFFSET 0.000000 0.000000 0.000000
					CHANNELS 3 Zrotation Yrotation Xrotation
					JOINT Neck1
					{
						OFFSET -0.054170 1.746240 0.172020
						CHANNELS 3 Zrotation Yrotation Xrotation
						JOINT Head
						{
							OFFSET 0.104070 1.761360 -0.123970
							CHANNELS 3 Zrotation Yrotation Xrotation
							End Site
							{
								OFFSET 0.000000 0.000000 0.000000
							}
						}
					}
				}
				JOINT LeftShoulder
				{
					OFFSET 0.000000 0.000000 0.000000
					CHANNELS 3 Zrotation Yrotation Xrotation
					JOINT LeftArm
					{
						OFFSET 3.362410 1.200890 -0.311210
						CHANNELS 3 Zrotation Yrotation Xrotation
						JOINT LeftForeArm
						{
							OFFSET 4.983000 -0.000000 -0.000000
							CHANNELS 3 Zrotation Yrotation Xrotation
							JOINT LeftHand
							{
								OFFSET 3.483560 -0.000000 -0.000000
								CHANNELS 3 Zrotation Yrotation Xrotation
								JOINT LeftFingerBase
								{
									OFFSET 0.000000 0.000000 0.000000
									CHANNELS 3 Zrotation Yrotation Xrotation
									JOINT LeftHandIndex1
									{
										OFFSET 0.715260 -0.000000 -0.000000
										CHANNELS 3 Zrotation Yrotation Xrotation
										End Site
										{
											OFFSET 0.000000 0.000000 0.000000
										}
									}
								}
								JOINT LThumb
								{
									OFFSET 0.000000 0.000000 0.000000
									CHANNELS 3 Zrotation Yrotation Xrotation
									End Site
									{
										OFFSET 0.000000 0.000000 0.000000
									}
								}
							}
						}
					}
				}
				JOINT RightShoulder
				{
					OFFSET 0.000000 0.000000 0.000000
					CHANNELS 3 Zrotation Yrotation Xrotation
					JOINT RightArm
					{
						OFFSET -3.136600 1.374050 -0.404650
						CHANNELS 3 Zrotation Yrotation Xrotation
						JOINT RightForeArm
						{
							OFFSET -5.241900 -0.000000 -0.000000
							CHANNELS 3 Zrotation Yrotation Xrotation
							JOINT RightHand
							{
								OFFSET -3.444170 -0.000000 -0.000000
								CHANNELS 3 Zrotation Yrotation Xrotation
								JOINT RightFingerBase
								{
									OFFSET 0.000000 0.000000 0.000000
									CHANNELS 3 Zrotation Yrotation Xrotation
									JOINT RightHandIndex1
									{
										OFFSET -0.622530 -0.000000 -0.000000
										CHANNELS 3 Zrotation Yrotation Xrotation
										End Site
										{
											OFFSET 0.000000 0.000000 0.000000
										}
									}
								}
								JOINT RThumb
								{
									OFFSET 0.000000 0.000000 0.000000
									CHANNELS 3 Zrotation Yrotation Xrotation
									End Site
									{
										OFFSET 0.000000 0.000000 0.000000
									}
								}
							}
						}
					}
				}
			}
		}
	}
}
MOTION
Frames: 7
Frame Time: 0.008333
0.916534 18.124404 -4.297326 -4.490981 3.249089 5.219125 -3.939616 -1.122272 0.614087 -10.912031 1.083224 -9.995101 0.691532 6.747053 18.156748 0.378045 -0.918119 -3.430477 0.683700 -5.286600 -14.727900 2.926769 1.941738 -0.907830 21.941467 1.265737 -5.109939 -1.343807 -6.087926 15.373673 0.056386 -3.274401 -7.071174 -0.326700 3.673800 -10.160800 2.215920 1.085858 10.963812 2.478829 2.052817 -0.531539 2.847809 0.997068 -9.185173 -14.312148 -8.328815 -15.232085 9.051775 -8.585637 9.262378 6.450900 -4.225800 9.926300 8.994219 2.799697 -7.388311 -106.415852 -64.964176 57.785370 57.669444 -56.668501 -30.838733 1.135766 0.828630 24.364661 9.519626 32.772036 4.648900 -7.125000 0.000000 0.000000 -26.406100 59.899900 -10.020800 -11.998638 -1.923191 1.564173 79.417106 49.579988 45.278079 -40.244425 51.872598 -20.011258 0.413725 0.127639 20.800676 -15.493519 7.258392 -1.971700 7.125000 0.000000 0.000000 8.013800 -22.755400 4.331500 
0.916828 18.123127 -4.299389 -4.594380 3.208461 5.250141 -3.938650 -1.122927 0.610723 -10.801958 1.067927 -10.068977 0.699033 6.768736 18.218805 0.371370 -0.868654 -3.439651 0.717800 -5.414200 -15.093800 2.925124 1.938785 -0.907586 22.061508 1.233930 -5.116451 -1.336316 -6.052731 15.278275 0.051605 -3.230110 -7.087009 -0.289800 3.462000 -9.567700 2.281126 1.088325 10.877271 2.511274 2.057937 -0.479658 2.864748 0.999005 -9.067744 -14.301806 -8.356328 -15.220923 9.081703 -8.618170 9.180195 6.452500 -4.233800 9.903000 8.998933 2.797133 -7.402849 -106.493367 -65.112504 57.888193 57.643049 -56.618252 -30.787548 1.120908 0.843276 24.169121 9.185139 32.821861 4.484200 -7.125000 0.000000 0.000000 -26.768100 59.862900 -10.146500 -11.998529 -1.908528 1.560831 79.504211 49.656000 45.285462 -40.298735 51.914738 -20.060204 0.417545 0.120028 20.604766 -15.243487 7.426394 -1.988400 7.125000 0.000000 0.000000 8.184900 -22.584800 4.458100 
0.914766 18.124502 -4.303416 -4.640751 3.042276 5.304906 -3.938476 -1.123118 0.610527 -10.760859 1.168287 -10.198943 0.703936 6.780402 18.254798 0.363266 -0.807890 -3.469276 0.760100 -5.568000 -15.535900 2.923171 1.932058 -0.906129 22.113586 1.391155 -5.131252 -1.335119 -6.029434 15.224534 0.056606 -3.250211 -6.982119 -0.299400 3.518300 -9.725200 2.247030 1.151845 10.881803 2.521236 2.139489 -0.510978 2.894462 1.046757 -9.133317 -14.319433 -8.355237 -15.104528 9.091542 -8.626773 9.171462 6.459900 -4.242200 9.877100 8.994739 2.798627 -7.368468 -106.677963 -65.089775 58.102973 57.618989 -56.576069 -30.758424 1.115688 0.838626 24.081716 9.132160 32.701905 4.442300 -7.125000 0.000000 0.000000 -26.722200 59.751300 -10.055500 -11.995296 -1.905663 1.534664 79.616097 49.409655 45.284345 -40.609998 52.063961 -20.295383 0.410606 0.104071 20.352866 -14.647753 7.344665 -1.892700 7.125000 0.000000 0.000000 8.621700 -22.669900 4.684300 
0.916239 18.127056 -4.304988 -4.638596 2.910977 5.336191 -3.940421 -1.124036 0.610957 -10.782351 1.205944 -10.246483 0.705883 6.783055 18.265217 0.352514 -0.730190 -3.487846 0.742600 -5.504900 -15.354300 2.921249 1.927968 -0.902919 22.084587 1.396299 -5.203057 -1.336779 -6.023328 15.215640 0.044233 -3.122391 -6.925057 -0.321200 3.642800 -10.073800 2.196387 1.186915 10.904184 2.530243 2.182286 -0.566157 2.931311 1.078135 -9.241579 -14.339650 -8.285692 -15.088536 9.057888 -8.544865 9.313936 6.469000 -4.215700 9.905600 8.989124 2.791267 -7.327611 -106.818719 -64.981540 58.177066 57.661317 -56.583034 -30.794286 1.114070 0.833046 24.088869 9.073303 32.661853 4.406400 -7.125000 0.000000 0.000000 -26.752600 59.707100 -10.039400 -11.991520 -1.911881 1.497121 79.768116 49.063164 45.260398 -40.870328 52.173553 -20.488658 0.403306 0.086131 20.268757 -13.970676 7.228593 -1.779700 7.125000 0.000000 0.000000 9.119900 -22.790200 4.936100 
0.917123 18.128726 -4.305872 -4.701190 2.857754 5.354316 -3.940996 -1.125436 0.614311 -10.720022 1.209010 -10.265115 0.704814 6.776937 18.250963 0.344502 -0.677127 -3.469476 0.717600 -5.413200 -15.091000 2.921287 1.916710 -0.893926 22.145926 1.427774 -5.267361 -1.341346 -6.031464 15.249712 0.039863 -3.078962 -6.932042 -0.350200 3.802300 -10.521100 2.259412 1.331827 10.749430 2.460293 2.370122 -0.721338 2.764421 1.168202 -9.383614 -14.116128 -8.214257 -14.054521 8.985219 -8.603005 9.070704 6.407600 -4.266900 9.586900 8.964119 2.830207 -7.148739 -107.837077 -64.776015 59.656745 57.511266 -56.353180 -30.640977 1.109862 0.808756 23.838818 9.236294 32.584649 4.480800 -7.125000 0.000000 0.000000 -26.556200 59.699500 -9.954300 -11.973792 -1.959209 1.445210 79.816563 48.277393 44.913975 -41.128554 52.238544 -20.649637 0.389309 0.073854 20.321158 -13.416652 6.971285 -1.648800 7.125000 0.000000 0.000000 9.542600 -23.052200 5.113000 
0.912801 18.128824 -4.310587 -4.716821 2.843800 5.387948 -3.940688 -1.124815 0.613737 -10.679843 1.208540 -10.311317 0.702594 6.770140 18.232213 0.343479 -0.672780 -3.439935 0.717400 -5.412600 -15.089200 2.921690 1.909972 -0.892878 22.192042 1.607963 -5.267234 -1.345005 -6.037821 15.277121 0.057883 -3.244494 -6.942596 -0.340300 3.748600 -10.370400 2.231984 1.359634 10.695238 2.446025 2.398788 -0.718894 2.755969 1.185035 -9.355729 -13.956707 -8.204963 -13.942925 8.848740 -8.628456 8.992663 6.325500 -4.282200 9.524400 8.964608 2.827167 -7.135610 -108.008488 -64.828100 59.996762 57.283283 -56.238663 -30.444700 1.097847 0.813434 23.551690 9.040479 32.504809 4.371000 -7.125000 0.000000 0.000000 -26.680900 59.587400 -9.932900 -11.970746 -1.966790 1.430471 79.891476 48.156914 44.795917 -41.204162 52.269161 -20.695640 0.383087 0.082374 20.408303 -13.645341 6.804371 -1.633300 7.125000 0.000000 0.000000 9.390900 -23.221200 4.992600 
0.910346 18.128333 -4.314025 -4.634024 2.875474 5.402146 -3.942071 -1.124750 0.612003 -10.754727 1.189566 -10.332160 0.702484 6.768549 18.231759 0.346994 -0.702872 -3.418536 0.712600 -5.394700 -15.038000 2.922367 1.912838 -0.894815 22.117640 1.650934 -5.244604 -1.342654 -6.032287 15.256507 0.066751 -3.329269 -6.950296 -0.306500 3.559300 -9.840000 2.106967 1.318776 10.746608 2.451811 2.332993 -0.681413 2.843345 1.162220 -9.342058 -13.964145 -8.249324 -14.248177 8.781815 -8.662592 9.099113 6.293200 -4.295800 9.630000 8.970461 2.804975 -7.166113 -107.856091 -64.903339 59.811894 57.239508 -56.245410 -30.406341 1.083068 0.831193 23.372635 8.585256 32.589669 4.148100 -7.125000 0.000000 0.000000 -27.189000 59.551500 -10.115900 -11.974354 -1.954842 1.413797 80.068648 48.218645 44.787010 -41.154219 52.248142 -20.657383 0.377535 0.092847 20.540320 -13.924571 6.608553 -1.614600 7.125000 0.000000 0.000000 9.203500 -23.420800 4.847600 
